<svg xmlns="http://www.w3.org/2000/svg" viewBox="0 0 773.38 708.18"><g id="Layer_2" data-name="Layer 2"><g id="Layer_1-2" data-name="Layer 1"><path d="M386.63,708.17H146.37c-74.12,0-135-52.74-145-126C-3.19,549,3.84,518,20.58,489.08q56.73-98,113.28-196.19Q197.22,183.11,260.61,73.35c24-41.42,59.88-66.78,107.3-72.14,62.9-7.12,112.15,17.28,144.6,71.94,36.17,60.92,71,122.63,106.45,184q67,116,134,232.07c14.17,24.52,21.13,50.78,20.39,79.14-1.78,67.91-54.63,128-121.59,137.84a177.61,177.61,0,0,1-25.34,1.89Q506.52,708.3,386.63,708.17Zm0-89.93q119.64,0,239.29,0c10.35,0,20.16-1.8,29.27-6.9,24.07-13.45,37.69-46.78,19.8-77.51-53.66-92.14-106.75-184.63-160.06-277q-40.05-69.37-80.09-138.74c-11.29-19.53-28.4-29.2-50.8-28.29-20.8.84-35.86,11.42-46.22,29.4Q258.51,257,179,394.62q-40.15,69.6-80.35,139.17c-6.55,11.3-10.13,23.21-8.12,36.27,4.51,29.26,26.67,48.15,56.36,48.17Q266.75,618.28,386.64,618.24Z"/></g></g></svg>