<svg xmlns="http://www.w3.org/2000/svg" viewBox="0 0 558 712"><g id="Layer_2" data-name="Layer 2"><g id="Layer_1-2" data-name="Layer 1"><g id="circle"><g id="Fantom-circle"><path id="Shape" d="M248,6.82c17.25-9.09,43.5-9.09,60.75,0l176,92.8c10.38,5.47,16.09,13.63,17.11,22.06H502V588.11c-.23,9.19-6,18.32-17.28,24.27l-176,92.8c-17.25,9.09-43.5,9.09-60.75,0l-176-92.8C60.69,606.45,55.29,597.26,55,588.11c0-.94,0-1.71,0-2.35V124.82c0-.65,0-1.3,0-1.94v-1.2h.08c.78-8.52,6.23-16.47,16.84-22.06ZM474,381,308.64,468.46c-17.22,9.11-43.43,9.11-60.65,0L83,381.19V586.67l165,86.8c9.75,5.22,19.88,10.3,29.76,10.52h.57c9.85,0,19.41-5,29.11-9.72L474,585.92ZM27.42,578c0,17.88,2.06,29.63,6.15,37.91C37,622.77,42.05,628,51.34,634.4l.53.36c2,1.39,4.28,2.84,7,4.55l3.22,2,9.9,6L57.81,671l-11.08-6.75-1.86-1.15c-3.2-2-5.86-3.71-8.33-5.4C10.07,639.7.2,620.07,0,579.24V578ZM265,257a25.35,25.35,0,0,0-3.58,1.53L85.68,351.62l-.53.29L85,352l.28.16.4.22,175.74,93.09A25.35,25.35,0,0,0,265,447Zm28,0V447a25.35,25.35,0,0,0,3.58-1.53l175.74-93.09.53-.29L473,352l-.28-.16-.4-.22L296.58,258.53A25.35,25.35,0,0,0,293,257ZM474,155,316,238l158,83ZM83,155V321l158-83ZM296.42,31.63c-9.14-4.84-25.7-4.84-34.84,0l-175.9,93-.53.29L85,125l.28.16.4.22,175.9,93c9.14,4.84,25.7,4.84,34.84,0l175.9-93,.53-.29L473,125l-.28-.16-.4-.22ZM500.19,41l11.08,6.75,1.86,1.15c3.2,2,5.86,3.71,8.33,5.39,26.47,18,36.34,37.64,36.54,78.47V134H530.58c0-17.88-2.06-29.63-6.15-37.91C521,89.22,516,84,506.67,77.6l-.54-.36c-2-1.39-4.28-2.84-7-4.55l-3.22-2-9.9-6Z"/></g></g></g></g></svg>