<svg xmlns="http://www.w3.org/2000/svg" viewBox="0 0 479.79 477.88"><g id="Layer_2" data-name="Layer 2"><g id="Layer_1-2" data-name="Layer 1"><path d="M479.79,379a14.61,14.61,0,0,1-4.53,5.91,13.57,13.57,0,0,1-7.75,2.43c-.28,0-.56,0-.84,0H218.9c-4.05,0-7.7-1-10.43-4.18a12.52,12.52,0,0,1-2.42-13.2,12,12,0,0,1,9.8-8,16.17,16.17,0,0,1,2.87-.2q124.07,0,248.13,0c5.78,0,10.07,2.34,12.58,7.66a2.6,2.6,0,0,0,.36.46Z"/><path d="M286.85,172.48H148.44a12.48,12.48,0,0,1-12.82-12.4c-.06-5.35-.1-10.71.2-16a163,163,0,0,1,2.55-21A150.28,150.28,0,0,1,170,55.58q4.53-5.52,9.54-10.59a152,152,0,0,1,48.66-33,147.59,147.59,0,0,1,30.29-9.16A175.78,175.78,0,0,1,278.16.37c3.23-.24,6.45-.31,9.68-.36a137,137,0,0,1,16.93,1.14A151,151,0,0,1,345,11.51a153.51,153.51,0,0,1,54.51,38.33,151.58,151.58,0,0,1,32.93,58.44,150.81,150.81,0,0,1,5,23.23c.63,4.75.94,9.52,1.22,14.3.26,4.63.09,9.26-.08,13.88a13.23,13.23,0,0,1-13.26,12.78Z"/><path d="M286.19,241q-84.19,0-168.38,0c-5,0-9-2-11.35-6.48-4.63-8.71,1.24-18.65,10.38-19q3.12-.11,6.22-.1H453.47c3,0,5.88.3,8.48,2a12.74,12.74,0,0,1,5.51,13.43A12.53,12.53,0,0,1,454.93,241Z"/><path d="M269.29,336.58q-75.87,0-151.72,0A12.56,12.56,0,0,1,105.5,328a12.75,12.75,0,0,1,10.39-16.75,10.45,10.45,0,0,1,1.68,0q151.89,0,303.79,0a12.76,12.76,0,0,1,2,25.3,15.08,15.08,0,0,1-2.51.12Z"/><path d="M170.93,290.3q-61.16,0-122.31,0A11.94,11.94,0,0,1,38.3,285c-5.06-7.23-1.57-18.3,8.24-19.93a15,15,0,0,1,2.5-.22H293.31a12.66,12.66,0,0,1,13,13.15,12.42,12.42,0,0,1-12.46,12.27Z"/><path d="M259,452.42q41.79,0,83.58,0a12.57,12.57,0,0,1,2.21,25,17.12,17.12,0,0,1-2.86.2H175.75c-7,0-11.8-3.91-13.19-10.78-.92-4.54,1.78-10.23,5.92-12.59a13.53,13.53,0,0,1,6.85-1.79Q217.18,452.43,259,452.42Z"/><path d="M346.18,434H270.87c-5.48,0-9.36-2.59-11.65-7.5-3.26-7,1.29-15.79,8.85-17.24a15.19,15.19,0,0,1,2.85-.26h150.5a12.5,12.5,0,0,1,.55,25Q384.08,434,346.18,434Z"/><path d="M123,387.22c-19.79,0-39.57-.06-59.36,0a12.52,12.52,0,1,1-.11-25h119A12.47,12.47,0,0,1,195,373.78a12.63,12.63,0,0,1-10.31,13.33,14.79,14.79,0,0,1-2.75.1Z"/><path d="M18,374.57A12.94,12.94,0,0,1,31,361.5a13.07,13.07,0,0,1-.11,26.14A13,13,0,0,1,18,374.57Z"/><path d="M249.74,421.42A12.91,12.91,0,1,1,237,408.26,13,13,0,0,1,249.74,421.42Z"/><path d="M154.31,464.82c.29,6.95-5.95,13.07-12.82,13.06a13.1,13.1,0,0,1,.08-26.19A13,13,0,0,1,154.31,464.82Z"/><path d="M82.56,214.9c7-.07,12.74,5.55,12.86,13a12.92,12.92,0,1,1-25.83-.13C69.6,220.58,75.71,214.63,82.56,214.9Z"/><path d="M69.59,323.9A12.91,12.91,0,1,1,82.42,337,12.93,12.93,0,0,1,69.59,323.9Z"/><path d="M12.11,291A12.81,12.81,0,0,1,.27,283a2.86,2.86,0,0,1-.23-1c0-2.64-.09-5.28,0-7.91A7.25,7.25,0,0,1,2,270a12.67,12.67,0,0,1,19.75-.73,12.42,12.42,0,0,1,2.71,12.62,12.48,12.48,0,0,1-9.62,8.89A11.51,11.51,0,0,1,12.11,291Z"/></g></g></svg>